# xmcd
#
# Track frame offsets:
#   150
#   11562
#   23142
#   34380
#   43789
#   53760
#   64509
#   77256
#   91414
#   119207
#   129948
#   141688
#
# Disc length: 2036 seconds
#
# Revision: 0
# Processed by: cddbd v1.5.2PL0 Copyright (c) Steve Scherf et al.
# Submitted via: Media_Universe 3.0
#
DISCID=a207f20c
DTITLE=Various Artist - Listen To A Country Song Vol:1
DYEAR=2013
DGENRE=Country
TTITLE0=Swinging Doors
TTITLE1=Blue Eyes Crying In The Rain
TTITLE2=Wine Me Up
TTITLE3=Billy Bayou
TTITLE4=Release Me
TTITLE5=Juke  Box Charlie
TTITLE6=The Auctioneer
TTITLE7=Georgie Court Room
TTITLE8=Mexicali Rose
TTITLE9=Maiden's Prayer
TTITLE10=Slippin' Around
TTITLE11=9,999,999 tEARS
EXTD=
EXTT0=
EXTT1=
EXTT2=
EXTT3=
EXTT4=
EXTT5=
EXTT6=
EXTT7=
EXTT8=
EXTT9=
EXTT10=
EXTT11=
PLAYORDER=
